<!--?xml version="1.0" standalone="no"?-->
              <svg id="sw-js-blob-svg" viewBox="0 0 100 100" xmlns="http://www.w3.org/2000/svg" version="1.1">
                    <defs> 
                        <linearGradient id="sw-gradient" x1="0" x2="1" y1="1" y2="0">
                            <stop id="stop1" stop-color="rgba(200, 16, 46, 1)" offset="0%"></stop>
                            <stop id="stop2" stop-color="rgba(255, 215, 0, 1)" offset="100%"></stop>
                        </linearGradient>
                    </defs>
                <path fill="url(#sw-gradient)" d="M22.8,-39.7C29.6,-35.6,35.2,-29.6,38.5,-22.7C41.7,-15.7,42.5,-7.9,42.8,0.2C43.2,8.2,43,16.5,38.9,21.9C34.8,27.3,26.8,30,19.7,33.2C12.5,36.4,6.3,40.3,-0.5,41.2C-7.3,42,-14.5,39.9,-21,36.3C-27.5,32.7,-33.2,27.6,-36.4,21.3C-39.5,15,-40,7.5,-39.8,0.1C-39.6,-7.3,-38.7,-14.5,-35.4,-20.5C-32,-26.5,-26.4,-31.2,-20.1,-35.5C-13.8,-39.9,-6.9,-43.9,0.6,-44.8C8,-45.8,16,-43.7,22.8,-39.7Z" width="100%" height="100%" transform="translate(50 50)" style="transition: 0.3s;" stroke-width="0" stroke="url(#sw-gradient)"></path>
              </svg>