<?xml version="1.0" encoding="UTF-8"?>
<svg xmlns="http://www.w3.org/2000/svg" width="78" height="23" viewBox="0 0 78 23" fill="none">
  <path d="M0.0347059 6.5031C1.75266 6.5031 3.4359 6.41229 5.10179 6.53943C6.54209 6.64842 7.51386 7.73826 7.65269 9.10056C7.82622 10.699 7.20151 11.8252 5.79591 12.4609C5.70915 12.4972 5.62238 12.5517 5.48356 12.6244C6.3165 13.8595 7.11474 15.0584 7.9824 16.3298C7.30563 16.3298 6.75033 16.348 6.17768 16.3117C6.05621 16.3117 5.90003 16.1482 5.81327 16.0029C5.18856 15.0947 4.56385 14.1683 3.95649 13.242C3.76561 12.9513 3.57472 12.8423 3.24502 12.8605C2.86325 12.8787 2.46413 12.8787 2.08236 12.8605C1.7353 12.8423 1.61383 12.9695 1.61383 13.3328C1.63119 14.2955 1.61383 15.2582 1.61383 16.2753C1.07589 16.2753 0.555297 16.2753 0 16.2753C0.0347061 13.024 0.0347059 9.75446 0.0347059 6.5031ZM1.64854 11.2802C2.68972 11.2802 3.64414 11.3529 4.5812 11.2621C5.51826 11.1713 6.00415 10.4992 5.96944 9.59099C5.93474 8.71911 5.41415 8.13787 4.47708 8.06521C3.64414 7.99256 2.79384 8.01072 1.96089 8.02888C1.85677 8.02888 1.64854 8.19236 1.64854 8.30134C1.64854 9.26404 1.64854 10.2631 1.64854 11.2802Z" fill="black"></path>
  <path d="M19.5049 11.371C19.5049 14.2772 17.3878 16.5114 14.6287 16.4933C11.8522 16.4933 9.78717 14.2954 9.78717 11.3528C9.78717 8.4466 11.9216 6.23059 14.6807 6.26692C17.4572 6.28508 19.5049 8.46477 19.5049 11.371ZM17.7869 11.4073C17.8043 9.40929 16.4507 7.86535 14.6634 7.84719C12.8587 7.82902 11.4878 9.31847 11.4878 11.3165C11.4704 13.3146 12.824 14.8403 14.6113 14.8585C16.4334 14.8948 17.7869 13.4235 17.7869 11.4073Z" fill="black"></path>
  <path d="M31.2007 6.44861C31.7039 6.44861 32.2072 6.44861 32.7625 6.44861C32.7798 6.63025 32.7972 6.81189 32.7972 7.01169C32.7972 8.64645 32.7972 10.2812 32.7972 11.9341C32.7972 12.2066 32.8145 12.4972 32.8492 12.7697C33.1269 14.5316 34.706 15.4035 36.2678 14.6587C37.2396 14.1865 37.5172 13.2783 37.5346 12.2611C37.5519 10.5355 37.5346 8.80993 37.5346 7.08435C37.5346 6.88454 37.5346 6.7029 37.5346 6.46677C38.0725 6.46677 38.5931 6.46677 39.1484 6.46677C39.1658 6.66658 39.1831 6.84822 39.1831 7.02986C39.1831 8.70095 39.2005 10.372 39.1831 12.0431C39.1831 12.588 39.131 13.133 39.0096 13.6597C38.541 15.5669 37.1181 16.5296 34.9837 16.4751C32.7278 16.4207 31.3048 15.0402 31.2007 12.6789C31.1139 10.699 31.166 8.70095 31.166 6.7029C31.1486 6.63025 31.1834 6.55759 31.2007 6.44861Z" fill="black"></path>
  <path d="M41.3523 14.931C41.6994 14.4769 42.0117 14.0954 42.3588 13.6595C42.5497 13.8048 42.7405 13.9501 42.9314 14.0954C43.8338 14.7493 44.8229 15.0944 45.9335 14.8583C46.5929 14.713 46.992 14.2952 47.0267 13.714C47.0614 13.1691 46.8011 12.7876 46.1244 12.5333C45.6211 12.3335 45.1006 12.2245 44.58 12.0611C44.2503 11.9521 43.9032 11.8613 43.5735 11.7159C42.2199 11.171 41.682 10.3536 41.7688 8.95501C41.8382 7.71986 42.6538 6.70267 43.9205 6.41205C45.5344 6.0306 47.0094 6.41205 48.3976 7.52005C48.1026 7.95599 47.825 8.37376 47.582 8.7552C46.9226 8.46458 46.35 8.11946 45.7253 7.95599C45.2567 7.82884 44.7188 7.88333 44.2329 7.97415C43.747 8.06497 43.452 8.44642 43.4173 8.99134C43.3826 9.51809 43.6429 9.88137 44.0941 10.063C44.632 10.281 45.17 10.4263 45.7253 10.6261C46.2111 10.7896 46.7317 10.9349 47.2003 11.1529C48.2067 11.6251 48.7273 12.4243 48.6753 13.6232C48.6406 14.8038 48.12 15.6575 47.0962 16.1116C45.5864 16.7837 44.0941 16.5657 42.6711 15.821C42.2026 15.5667 41.8035 15.2398 41.3523 14.931Z" fill="black"></path>
  <path d="M23.6175 7.97439C23.6175 8.91891 23.6175 9.77262 23.6175 10.699C25.1793 10.699 26.7237 10.699 28.3028 10.699C28.3028 11.2621 28.3028 11.7343 28.3028 12.2793C26.741 12.2793 25.1966 12.2793 23.6001 12.2793C23.6001 13.6416 23.6001 14.9494 23.6001 16.2935C23.0101 16.2935 22.5069 16.2935 21.9516 16.2935C21.9516 13.024 21.9516 9.75446 21.9516 6.44861C24.2596 6.44861 26.5502 6.44861 28.8928 6.44861C28.8928 6.93904 28.8928 7.4113 28.8928 7.97439C27.1575 7.97439 25.4049 7.97439 23.6175 7.97439Z" fill="black"></path>
  <rect x="56.3651" y="6.26648" width="21.635" height="10.2482" rx="5.12409" fill="#A4BDE4"></rect>
  <ellipse cx="72.5058" cy="11.3333" rx="4.55474" ry="4.55474" fill="white"></ellipse>
  <rect x="71.0256" y="9.34094" width="1.02482" height="4.09927" fill="black"></rect>
  <rect x="73.0752" y="9.34094" width="1.02482" height="4.09927" fill="black"></rect>
</svg>
